HIERARCHY
ROOT hip
{
	OFFSET	0.00  0.00  0.00 
	CHANNELS 6 Xposition Yposition Zposition Xrotation Zrotation Yrotation
	JOINT abdomen
	{
		OFFSET	0.000000 3.402643 0.000000
		CHANNELS 3 Xrotation Zrotation Yrotation
		JOINT chest
		{
			OFFSET	0.000000 8.438564 -0.680529
			CHANNELS 3 Xrotation Zrotation Yrotation
			JOINT neck
			{
				OFFSET	0.000000 10.207942 -0.272212
				CHANNELS 3 Xrotation Zrotation Yrotation
				JOINT head
				{
					OFFSET	0.000000 3.130431 0.000000
					CHANNELS 3 Xrotation Zrotation Yrotation
					End Site
					{
						OFFSET 0.000000 3.130435 0.000000
					}
				}
			}
			JOINT lCollar
			{
				OFFSET	3.402647 6.669187 -0.816635
				CHANNELS 3 Yrotation Zrotation Xrotation
				JOINT lShldr
				{
					OFFSET	3.266541 0.000000 0.000000
					CHANNELS 3 Zrotation Yrotation Xrotation
					JOINT lForeArm
					{
						OFFSET	10.071835 0.000000 0.000000
						CHANNELS 3 Yrotation Zrotation Xrotation
						JOINT lHand
						{
							OFFSET	8.438563 0.000000 0.000000
							CHANNELS 3 Zrotation Yrotation Xrotation
							End Site
							{
								OFFSET 4.083176 0.000000 0.000000
							}
						}
					}
				}
			}
			JOINT rCollar
			{
				OFFSET	-3.538753 6.669187 -0.816635
				CHANNELS 3 Yrotation Zrotation Xrotation
				JOINT rShldr
				{
					OFFSET	-3.130435 0.000000 0.000000
					CHANNELS 3 Zrotation Yrotation Xrotation
					JOINT rForeArm
					{
						OFFSET	-10.207940 0.000000 0.000000
						CHANNELS 3 Yrotation Zrotation Xrotation
						JOINT rHand
						{
							OFFSET	-8.302459 0.000000 0.000000
							CHANNELS 3 Zrotation Yrotation Xrotation
							End Site
							{
								OFFSET -4.083176 0.000000 0.000000
							}
						}
					}
				}
			}
		}
	}
	JOINT lThigh
	{
		OFFSET	5.308129 -1.633274 1.361059
		CHANNELS 3 Xrotation Zrotation Yrotation
		JOINT lShin
		{
			OFFSET	-2.041588 -20.007561 0.000000
			CHANNELS 3 Xrotation Zrotation Yrotation
			JOINT lFoot
			{
				OFFSET	0.000000 -19.190928 -1.224953
				CHANNELS 3 Xrotation Yrotation Zrotation
				End Site
				{
					OFFSET 0.000000 -2.449905 4.627600
				}
			}
		}
	}
	JOINT rThigh
	{
		OFFSET	-5.308129 -1.633274 1.361059
		CHANNELS 3 Xrotation Zrotation Yrotation
		JOINT rShin
		{
			OFFSET	2.041588 -20.007561 0.000000
			CHANNELS 3 Xrotation Zrotation Yrotation
			JOINT rFoot
			{
				OFFSET	0.000000 -19.190928 -1.224953
				CHANNELS 3 Xrotation Yrotation Zrotation
				End Site
				{
					OFFSET 0.000000 -2.449905 4.627600
				}
			}
		}
	}
	JOINT cyl_1
	{
		OFFSET	0.000000 0.000000 0.000000
		CHANNELS 3 Xrotation Zrotation Yrotation
		End Site
		{
			OFFSET 0.000000 -2.858223 0.000000
		}
	}
}
MOTION
Frames:     13
Frame Time: 0.033333
0.000000 46.200199 0.000000 0.000000 0.000000 0.000000 -0.341797 0.000000 0.000000 -0.429804 0.000000 -0.449113 0.000000 0.000000 0.000000 0.000000 0.000000 0.000000 0.281988 -8.000000 -0.002729 0.000000 -4.000000 0.000000 -8.000000 0.000000 0.000000 -7.000000 0.000000 0.000000 0.000000 8.000000 -0.194249 -0.260207 4.000000 -0.449221 8.000000 0.000000 0.000000 7.000000 0.000000 0.000000 -5.121420 4.965990 0.036196 10.211700 -1.980570 -0.079563 13.613300 2.331480 5.490040 -5.122600 -5.419650 -0.144222 10.347700 2.290680 0.119386 14.681200 -1.728550 -5.011670 0.000000 0.000000 0.000000 
-0.017860 41.874825 0.000000 -0.258947 -1.299480 10.178300 1.000000 0.025509 -6.000000 7.179720 6.095890 -8.258060 3.000000 0.000000 0.000000 -8.129030 -4.290320 6.000000 -2.001985 0.322069 -9.988743 -72.000000 -2.000000 17.000000 -3.000000 0.000000 -11.000000 3.701630 -12.281700 1.210020 -6.006386 -0.757538 3.914445 72.000000 -5.000000 37.000000 0.000000 0.000000 13.000000 8.188160 -14.656800 0.000000 16.820499 1.093880 -0.015530 17.677799 -2.894290 0.137714 -4.692724 -2.441360 -0.351659 -18.533899 2.997000 -23.444700 9.371150 1.142980 -0.110176 8.181678 -6.002632 -1.885141 0.000000 0.000000 0.000000 
-0.136106 41.879787 0.000000 -0.258947 -1.445160 9.743910 1.000000 0.467853 -5.752860 6.584860 5.436380 -7.938180 3.000000 0.000000 0.000000 -7.978120 -4.375040 6.090000 -1.542996 0.341673 -9.180251 -72.402199 -0.169246 18.178499 -2.185740 0.000000 -9.605920 4.383750 -9.481500 1.139730 -5.537426 -0.612364 3.124231 72.010101 -2.619590 36.508499 1.363920 0.000000 11.605900 7.924750 -13.972100 0.070286 11.750000 2.709750 0.831094 28.097799 -5.198310 -0.222768 1.170332 -2.048964 2.413709 -17.559999 2.893430 -20.573900 12.984200 1.922370 -0.102739 2.752745 -6.531279 -3.440192 0.000000 0.000000 0.000000 
-0.272212 42.050289 0.000000 -0.054387 -1.742210 8.644090 1.000000 1.431850 -5.367940 5.787470 4.632090 -7.428950 3.000000 0.000000 0.000000 -7.774560 -4.449870 5.929820 -1.005878 0.351508 -8.245783 -72.928497 2.124460 19.555300 -1.170710 0.000000 -7.996090 5.185470 -6.424100 1.058570 -5.000146 -0.437781 2.207793 72.031197 0.404016 36.044201 3.108860 0.000000 9.996090 7.734520 -13.181400 0.151449 8.190960 3.694580 1.740240 35.584499 -6.595200 -0.691946 8.279204 0.029225 4.003906 -15.886600 4.348310 -17.115101 11.558800 1.604120 -0.104427 1.542263 -5.508255 -4.777905 0.000000 0.000000 0.000000 
-0.408318 42.380650 0.000000 0.262393 -1.950630 7.362110 1.000000 2.416820 -4.709670 4.909670 3.709270 -6.534480 3.000000 0.000000 0.000000 -7.354840 -4.263040 5.356880 -0.439462 0.361317 -7.272619 -73.503197 4.591590 20.997499 -0.080918 0.000000 -6.317340 5.817140 -4.264240 0.973932 -4.443406 -0.262879 1.239338 72.057198 3.672170 35.603199 4.999680 0.000000 8.317340 7.583870 -12.356700 0.236088 4.613340 3.995020 2.821700 39.589600 -7.266980 -1.007370 25.119049 4.271209 4.944821 -13.876300 5.876120 -13.888200 9.117540 1.042720 -0.105500 1.118591 -4.285719 -5.660078 0.000000 0.000000 0.000000 
-0.537430 42.793709 0.000000 0.631343 -1.772570 6.040590 1.000000 2.827700 -3.777400 4.067820 2.636410 -5.264930 3.000000 0.000000 0.000000 -6.577780 -3.597880 4.288680 0.146487 0.371093 -6.241180 -74.062103 7.053810 22.502501 1.010080 0.000000 -4.552150 6.057910 -3.023110 0.884935 -3.857424 -0.068205 0.229776 72.077599 6.906730 35.063702 6.863030 0.000000 6.552150 7.341750 -11.489900 0.325084 2.792500 3.530480 4.103300 39.053101 -7.074120 -0.948842 10.529271 0.263084 3.828129 -10.988300 6.755530 -11.162800 8.383450 0.834933 -0.093715 -2.044631 -3.502194 -6.584396 0.000000 0.000000 0.000000 
-0.599907 43.212322 0.000000 0.992403 -1.312180 4.641520 1.000000 2.779370 -2.615610 3.378300 1.437930 -3.697630 3.000000 0.000000 0.000000 -5.617710 -2.576330 2.706130 0.771503 0.400354 -5.161709 -74.540703 9.332780 24.067200 2.028710 0.000000 -2.682980 5.913770 -2.459750 0.790696 -3.232427 0.107251 -0.853318 72.081802 9.829570 34.303799 8.525540 0.000000 4.682980 6.877140 -10.572300 0.419323 -0.248063 2.786630 5.569060 38.537601 -6.992060 -0.897409 2.410548 -1.989869 2.765395 -7.493990 7.322800 -8.157340 6.001800 0.277778 -0.115554 -4.304516 -2.761197 -7.215084 0.000000 0.000000 0.000000 
-0.604490 43.559311 0.000000 1.285530 -0.737721 3.126920 1.000000 2.564180 -1.268760 2.957450 0.152247 -1.909900 3.000000 0.000000 0.000000 -4.727820 -1.404950 0.843881 1.435591 0.449078 -4.005471 -74.874802 11.250200 25.688801 2.901430 0.000000 -0.692332 5.447380 -2.333240 0.690333 -2.568388 0.273163 -2.009231 72.059502 12.162600 33.201698 9.813890 0.000000 2.692330 6.059010 -9.595820 0.519686 -2.928960 1.903970 7.157770 37.480598 -6.809910 -0.802999 -5.534186 -3.797965 1.223844 -4.785770 7.176850 -6.302540 4.610960 0.019955 -0.093983 -6.805240 -1.559020 -7.443950 0.000000 0.000000 0.000000 
-0.567412 43.757858 0.000000 1.368110 -0.525964 1.458790 1.000000 2.474500 0.218659 2.921660 -1.182220 0.020930 3.000000 0.000000 0.000000 -4.161290 -0.290319 -1.000000 2.138762 0.526976 -2.773676 -75.000000 12.627600 27.364401 3.554660 0.000000 1.437320 4.721410 -2.402610 0.582961 -1.855519 0.419702 -3.248122 72.000000 13.627600 31.635599 10.554700 0.000000 0.562682 4.756330 -8.551900 0.627058 -4.342650 1.007710 8.941360 34.143501 -6.094070 -0.536154 -12.402356 -4.969746 -1.127284 -2.580620 7.018260 -5.477780 4.473490 0.003923 -0.105028 -9.823048 0.087207 -7.148459 0.000000 0.000000 0.000000 
-0.504909 43.772774 0.000000 1.450680 -0.314207 -0.400874 1.000000 2.723180 1.784130 3.342750 -2.522210 2.004820 3.000000 0.000000 0.000000 -4.106050 0.600326 -2.570710 2.890808 0.643711 -1.468160 -74.873398 13.324200 29.081301 3.927080 0.000000 3.698110 3.797070 -2.469600 0.468978 -1.103562 0.527246 -4.569923 71.899696 14.021700 29.540600 10.624600 0.000000 -1.698110 2.889630 -7.398760 0.741041 -11.968500 0.299403 11.262200 30.494301 -5.566220 -0.372516 -8.582558 -4.021166 -1.927993 -0.459028 6.656290 -5.402030 4.316840 0.017709 -0.107440 -12.468456 2.106968 -6.147027 0.000000 0.000000 0.000000 
-0.430877 43.696903 0.000000 1.391660 -0.171966 -2.459000 1.000000 3.205170 3.292820 4.114440 -3.805070 3.900840 3.000000 0.000000 0.000000 -4.488920 1.257150 -3.786570 3.652691 0.789409 -0.148179 -74.538300 13.348500 30.787500 4.006320 0.000000 5.980600 2.729730 -2.508800 0.353900 -0.341817 0.615223 -5.904533 71.782204 13.442600 27.080000 10.100400 0.000000 -3.980600 0.585713 -5.960770 0.856119 -17.336901 -0.766743 13.779500 13.523900 -2.066370 0.168553 1.596492 -2.852872 -4.409521 1.851020 6.161430 -5.796100 4.102030 0.040578 -0.097676 -14.624368 4.371093 -4.535100 0.000000 0.000000 0.000000 
-0.349857 43.529346 0.000000 1.140540 -0.045172 -4.598280 1.000000 3.735890 4.591850 5.085940 -4.963310 5.555330 3.000000 0.000000 0.000000 -5.171440 1.709680 -4.609130 4.375584 0.934768 1.090437 -74.059303 12.746800 32.421501 3.792240 0.000000 8.149980 1.573280 -2.533860 0.244526 0.380885 0.664048 -7.182261 71.677902 12.063100 24.473900 9.108600 0.000000 -6.149980 -1.977080 -4.028850 0.965494 -19.352200 -2.004300 15.455900 1.317790 2.536820 -0.648555 2.317806 -3.111831 -10.435134 4.301610 5.485120 -6.496440 3.965720 0.059320 -0.082049 -16.110538 6.741595 -2.518241 0.000000 0.000000 0.000000 
-0.264055 43.235683 0.000000 0.771996 0.092734 -6.670380 1.000000 4.141050 5.528340 6.106440 -5.929410 6.814650 3.000000 0.000000 0.000000 -6.015170 1.987630 -5.000000 5.020425 1.079827 2.190134 -73.501297 11.565000 33.921398 3.284710 0.000000 10.071400 0.381629 -2.551730 0.147651 1.015699 0.693250 -8.313188 71.617104 10.056300 21.942699 7.775990 0.000000 -8.071420 -4.620410 -1.393910 1.062370 -19.340200 -3.095290 17.377399 -2.733340 2.824940 -0.782467 -8.074730 -1.494099 0.430051 6.761830 4.585690 -7.355200 3.984830 0.097525 -0.076239 -16.700893 9.023193 -0.425446 0.000000 0.000000 0.000000 
